<svg width="24" height="24" viewBox="0 0 24 24" fill="none" xmlns="http://www.w3.org/2000/svg">
<path d="M21.7874 12.225C21.7874 11.5667 21.7291 10.9417 21.6291 10.3334H12.2124V14.0917H17.6041C17.3624 15.325 16.6541 16.3667 15.6041 17.075V19.575H18.8207C20.7041 17.8334 21.7874 15.2667 21.7874 12.225Z" fill="#4285F4"/>
<path d="M12.2124 22C14.9124 22 17.1707 21.1 18.8207 19.575L15.604 17.075C14.704 17.675 13.5624 18.0417 12.2124 18.0417C9.60402 18.0417 7.39569 16.2833 6.60402 13.9083H3.28735V16.4833C4.92902 19.75 8.30402 22 12.2124 22Z" fill="#34A853"/>
<path d="M6.60407 13.9084C6.39574 13.3084 6.2874 12.6667 6.2874 12.0001C6.2874 11.3334 6.40407 10.6917 6.60407 10.0917V7.51672H3.2874C2.60407 8.86672 2.2124 10.3834 2.2124 12.0001C2.2124 13.6167 2.60407 15.1334 3.2874 16.4834L6.60407 13.9084Z" fill="#FBBC05"/>
<path d="M12.2124 5.95833C13.6874 5.95833 15.004 6.46667 16.0457 7.45834L18.8957 4.60833C17.1707 2.99167 14.9124 2 12.2124 2C8.30402 2 4.92902 4.25 3.28735 7.51667L6.60402 10.0917C7.39569 7.71667 9.60402 5.95833 12.2124 5.95833Z" fill="#EA4335"/>
</svg>
