<svg width="100" height="100" viewBox="0 0 100 100" fill="none" xmlns="http://www.w3.org/2000/svg">
<g clip-path="url(#clip0_4_116)">
<rect width="100" height="100" rx="50" fill="#D9D9D9" fill-opacity="0.5"/>
<path d="M50 0C22.4 0 0 22.4 0 50C0 77.6 22.4 100 50 100C77.6 100 100 77.6 100 50C100 22.4 77.6 0 50 0ZM25.35 81.4C27.5 76.9 40.6 72.5 50 72.5C59.4 72.5 72.55 76.9 74.65 81.4C67.85 86.8 59.3 90 50 90C40.7 90 32.15 86.8 25.35 81.4ZM81.8 74.15C74.65 65.45 57.3 62.5 50 62.5C42.7 62.5 25.35 65.45 18.2 74.15C13.1 67.45 10 59.1 10 50C10 27.95 27.95 10 50 10C72.05 10 90 27.95 90 50C90 59.1 86.9 67.45 81.8 74.15V74.15ZM50 20C40.3 20 32.5 27.8 32.5 37.5C32.5 47.2 40.3 55 50 55C59.7 55 67.5 47.2 67.5 37.5C67.5 27.8 59.7 20 50 20ZM50 45C45.85 45 42.5 41.65 42.5 37.5C42.5 33.35 45.85 30 50 30C54.15 30 57.5 33.35 57.5 37.5C57.5 41.65 54.15 45 50 45Z" fill="white"/>
</g>
<defs>
<clipPath id="clip0_4_116">
<rect width="100" height="100" rx="50" fill="white"/>
</clipPath>
</defs>
</svg>
