<svg width="74" height="74" viewBox="0 0 74 74" fill="none" xmlns="http://www.w3.org/2000/svg">
<g clip-path="url(#clip0_5_798)">
<path d="M55.5 18.5H49.3334C49.3334 11.6858 43.8142 6.16663 37 6.16663C30.1859 6.16663 24.6667 11.6858 24.6667 18.5H18.5C15.1084 18.5 12.3334 21.275 12.3334 24.6666V61.6666C12.3334 65.0583 15.1084 67.8333 18.5 67.8333H55.5C58.8917 67.8333 61.6667 65.0583 61.6667 61.6666V24.6666C61.6667 21.275 58.8917 18.5 55.5 18.5ZM37 12.3333C40.3917 12.3333 43.1667 15.1083 43.1667 18.5H30.8334C30.8334 15.1083 33.6084 12.3333 37 12.3333ZM55.5 61.6666H18.5V24.6666H24.6667V30.8333C24.6667 32.5291 26.0542 33.9166 27.75 33.9166C29.4459 33.9166 30.8334 32.5291 30.8334 30.8333V24.6666H43.1667V30.8333C43.1667 32.5291 44.5542 33.9166 46.25 33.9166C47.9459 33.9166 49.3334 32.5291 49.3334 30.8333V24.6666H55.5V61.6666Z" fill="#002F52"/>
</g>
<defs>
<clipPath id="clip0_5_798">
<rect width="74" height="74" fill="white"/>
</clipPath>
</defs>
</svg>
