<svg width="69" height="69" viewBox="0 0 69 69" fill="none" xmlns="http://www.w3.org/2000/svg">
<path d="M59.8023 14.2387C56.6413 13.242 53.1671 12.8148 49.8352 12.8148C44.2822 12.8148 38.3019 13.9539 34.1727 17.0864C30.0435 13.9539 24.0633 12.8148 18.5102 12.8148C12.9572 12.8148 6.97692 13.9539 2.84772 17.0864V58.8056C2.84772 59.5176 3.55965 60.2295 4.27158 60.2295C4.55635 60.2295 4.69874 60.0871 4.98351 60.0871C8.82795 58.2361 14.381 56.9546 18.5102 56.9546C24.0633 56.9546 30.0435 58.0937 34.1727 61.2262C38.0172 58.8056 44.9941 56.9546 49.8352 56.9546C54.534 56.9546 59.3751 57.8089 63.3619 59.9447C63.6467 60.0871 63.7891 60.0871 64.0739 60.0871C64.7858 60.0871 65.4977 59.3752 65.4977 58.6632V17.0864C63.7891 15.8049 61.9381 14.9506 59.8023 14.2387ZM8.54317 52.683V19.9341C11.6757 18.9374 15.0929 18.5103 18.5102 18.5103C22.3262 18.5103 27.4236 19.6778 31.325 21.3295V54.0784C27.4236 52.4267 22.3262 51.2591 18.5102 51.2591C15.0929 51.2591 11.6757 51.6863 8.54317 52.683ZM59.8023 52.683C56.6698 51.6863 53.2525 51.2591 49.8352 51.2591C46.0193 51.2591 40.9218 52.4267 37.0205 54.0784V21.3295C40.9218 19.6494 46.0193 18.5103 49.8352 18.5103C53.2525 18.5103 56.6698 18.9374 59.8023 19.9341V52.683Z" fill="black"/>
<path opacity="0.3" d="M31.325 21.3295C27.4237 19.6778 22.3262 18.5103 18.5103 18.5103C15.093 18.5103 11.6757 18.9374 8.54321 19.9341V52.683C11.6757 51.6863 15.093 51.2591 18.5103 51.2591C22.3262 51.2591 27.4237 52.4267 31.325 54.0784V21.3295Z" fill="black"/>
<path d="M49.8352 29.9011C52.3412 29.9011 54.7618 30.1574 56.9545 30.6415V26.313C54.7048 25.8858 52.2843 25.6295 49.8352 25.6295C46.1901 25.6295 42.8298 26.0852 39.8682 26.9679V31.4389C42.6874 30.4422 46.0762 29.9011 49.8352 29.9011Z" fill="black"/>
<path d="M49.8352 37.4762C52.3412 37.4762 54.7618 37.7325 56.9545 38.2166V33.888C54.7048 33.4609 52.2843 33.2046 49.8352 33.2046C46.1901 33.2046 42.8298 33.6602 39.8682 34.543V39.014C42.6874 38.0457 46.0762 37.4762 49.8352 37.4762Z" fill="black"/>
<path d="M49.8352 45.0795C52.3412 45.0795 54.7618 45.3358 56.9545 45.8199V41.4913C54.7048 41.0642 52.2843 40.8079 49.8352 40.8079C46.1901 40.8079 42.8298 41.2635 39.8682 42.1463V46.6172C42.6874 45.6205 46.0762 45.0795 49.8352 45.0795Z" fill="black"/>
</svg>
